<?xml version="1.0" encoding="utf-8"?>
<!-- Generator: Adobe Illustrator 18.0.0, SVG Export Plug-In . SVG Version: 6.00 Build 0)  -->
<!DOCTYPE svg PUBLIC "-//W3C//DTD SVG 1.1//EN" "http://www.w3.org/Graphics/SVG/1.1/DTD/svg11.dtd">
<svg version="1.1" id="Icon" xmlns="http://www.w3.org/2000/svg" xmlns:xlink="http://www.w3.org/1999/xlink" x="0px" y="0px"
	 viewBox="0 0 640 640" enable-background="new 0 0 640 640" xml:space="preserve">
<path id="background" fill="#E7E1E6" stroke="#090709" stroke-width="8" d="M615,630H25c-8.3,0-15-6.7-15-15V25c0-8.3,6.7-15,15-15
	h590c8.3,0,15,6.7,15,15v590C630,623.3,623.3,630,615,630z"/>
<g id="pivottable">
	<path fill="#DBD9D6" stroke="#717271" stroke-width="6" stroke-miterlimit="10" d="M184.3,562.2H83.9c-2.8,0-5-2.2-5-5V225.5
		c0-2.8,2.2-5,5-5h100.4c2.8,0,5,2.2,5,5v331.7C189.3,560,187.1,562.2,184.3,562.2z"/>
	<path fill="#DBD9D6" stroke="#717271" stroke-width="6" stroke-miterlimit="10" d="M561.1,82.8v100.4c0,2.8-2.2,5-5,5H224.4
		c-2.8,0-5-2.2-5-5V82.8c0-2.8,2.2-5,5-5h331.7C558.8,77.8,561.1,80,561.1,82.8z"/>
	<path fill="#DBD9D6" stroke="#717271" stroke-width="6" stroke-miterlimit="10" d="M184.3,188.2H83.9c-2.8,0-5-2.2-5-5V82.8
		c0-2.8,2.2-5,5-5h100.4c2.8,0,5,2.2,5,5v100.4C189.3,186,187.1,188.2,184.3,188.2z"/>
</g>
<g id="percentage">
	<path fill="#007CBA" d="M373.3,345.3c0,28.7-12.9,50.7-44.5,50.7c-31.6,0-44.5-22-44.5-50.7c0-28.7,12.9-50.7,44.5-50.7
		C360.5,294.6,373.3,316.6,373.3,345.3z M299.2,345.6c0,16.9,6.2,38.4,29.6,38.4c23.5,0,29.6-21.5,29.6-38.4
		c0-17.2-6.2-38.9-29.6-38.9C305.4,306.7,299.2,328.4,299.2,345.6z M444.9,289.5h13.1L331.7,493.2h-13.4L444.9,289.5z M496.1,437.4
		c0,28.7-12.9,50.7-44.5,50.7c-31.6,0-44.5-22-44.5-50.7c0-28.7,12.9-50.7,44.5-50.7C483.2,386.7,496.1,408.7,496.1,437.4z
		 M422,437.7c0,16.9,6.2,38.4,29.6,38.4c23.5,0,29.6-21.5,29.6-38.4c0-17.2-6.2-38.9-29.6-38.9C428.1,398.7,422,420.5,422,437.7z"/>
</g>
</svg>
