<?xml version="1.0" encoding="utf-8"?>
<!-- Generator: Adobe Illustrator 18.0.0, SVG Export Plug-In . SVG Version: 6.00 Build 0)  -->
<!DOCTYPE svg PUBLIC "-//W3C//DTD SVG 1.1//EN" "http://www.w3.org/Graphics/SVG/1.1/DTD/svg11.dtd">
<svg version="1.1" id="Capa_1" xmlns="http://www.w3.org/2000/svg" xmlns:xlink="http://www.w3.org/1999/xlink" x="0px" y="0px"
	 viewBox="0 0 570 570" enable-background="new 0 0 570 570" xml:space="preserve">
<image overflow="visible" width="563" height="544" xlink:href="F87BB2B4.jpg"  transform="matrix(0.9999 0 0 0.9999 5 15)">
</image>
<g>
	<g>
		<linearGradient id="SVGID_1_" gradientUnits="userSpaceOnUse" x1="189.1252" y1="267.3351" x2="442.998" y2="267.3351">
			<stop  offset="0" style="stop-color:#E1CED1"/>
			<stop  offset="0.5" style="stop-color:#D0B1B6"/>
			<stop  offset="1" style="stop-color:#C49DA3"/>
		</linearGradient>
		<path fill="url(#SVGID_1_)" d="M431.2,210.8c7.4,15.5,11.3,32,11.7,49.6c0.4,17.7-2.8,34.8-9.6,51.2
			c-6.9,16.5-16.3,30.8-28.2,42.9c-11.9,12.1-26.1,21.7-42.5,28.9c-16.4,7.1-33.4,10.7-51.2,10.7c-19.4,0-37.7-4.2-54.7-12.4
			c-16.9-8.1-31-19.6-42.4-34.2c-0.7-1.1-1-2.3-1-3.7c0.1-1.4,0.6-2.5,1.4-3.4l22.6-23.2c1.1-1,2.5-1.5,4.1-1.6
			c1.7,0.2,3,0.8,3.7,1.9c7.7,10.4,17.4,18.5,29,24.1c11.7,5.7,24.2,8.5,37.5,8.4c11.7-0.1,23-2.5,33.7-7.3
			c10.8-4.8,20.1-11.1,28-19.1c7.9-8,14.1-17.4,18.6-28.2c4.5-10.8,6.7-22,6.6-33.7c-0.2-11.6-2.6-22.6-7.4-32.8
			c-4.7-10.2-11-18.9-18.8-26.1c-7.8-7.1-16.9-12.6-27.4-16.5c-10.4-3.8-21.3-5.5-32.6-4.9c-10.6,0.5-20.8,2.9-30.5,7.1
			c-9.7,4.2-18.3,9.9-25.8,17.3l21.7,21.1c3.3,3.1,4,6.8,2.1,11c-1.9,4.4-5.1,6.6-9.6,6.8l-71.3,2.4c-2.7,0.1-5-0.8-6.9-2.8
			c-1.9-1.9-2.8-4.3-2.8-7l2-69.9c0.1-4.3,2.3-7.4,6.4-9.4c4-2,7.6-1.4,10.6,1.6l19.7,18.9c11.4-11.1,24.4-19.8,38.9-26.4
			c14.6-6.6,29.8-10.3,45.6-11.2c16.9-1,33.1,1.3,48.7,6.9c15.8,5.6,29.6,13.7,41.3,24.1C414.3,182.5,423.9,195.4,431.2,210.8z
			 M333.2,216.4l0,73.8c0,1.6-0.5,2.9-1.5,3.9c-1,1-2.3,1.6-3.9,1.6l-53.1,1.2c-1.5,0-2.8-0.4-3.8-1.4c-1-1-1.4-2.2-1.4-3.8
			l0.1-10.5c0-1.5,0.5-2.8,1.5-3.8c1-1,2.2-1.5,3.8-1.6l36.9-1l0.2-57.5c0-1.5,0.5-2.8,1.5-3.8c1-1,2.2-1.5,3.8-1.6l10.5-0.4
			c1.5-0.1,2.8,0.4,3.8,1.3C332.7,213.6,333.2,214.8,333.2,216.4z"/>
	</g>
</g>
</svg>
